<mxfile host="app.diagrams.net" agent="Mozilla/5.0 (Windows NT 10.0; Win64; x64) AppleWebKit/537.36 (KHTML, like Gecko) Chrome/135.0.0.0 Safari/537.36" version="26.2.13">
  <diagram name="第 1 页" id="uEWCF2knJyzH1rNUkeXv">
    <mxGraphModel dx="1044" dy="562" grid="1" gridSize="10" guides="1" tooltips="1" connect="1" arrows="1" fold="1" page="1" pageScale="1" pageWidth="827" pageHeight="1169" math="0" shadow="0">
      <root>
        <mxCell id="0" />
        <mxCell id="1" parent="0" />
        <mxCell id="W-W5v7MFtPskwx4H4-j5-1" value="&lt;font style=&quot;font-size: 18px;&quot;&gt;评价工作票&lt;/font&gt;" style="swimlane;html=1;childLayout=stackLayout;startSize=20;rounded=0;shadow=0;labelBackgroundColor=none;strokeWidth=1;fontFamily=Verdana;fontSize=8;align=center;" vertex="1" parent="1">
          <mxGeometry x="70" y="40" width="640" height="760" as="geometry" />
        </mxCell>
        <mxCell id="W-W5v7MFtPskwx4H4-j5-2" value="接收请求" style="swimlane;html=1;startSize=20;" vertex="1" parent="W-W5v7MFtPskwx4H4-j5-1">
          <mxGeometry y="20" width="160" height="740" as="geometry">
            <mxRectangle y="20" width="40" height="730" as="alternateBounds" />
          </mxGeometry>
        </mxCell>
        <mxCell id="W-W5v7MFtPskwx4H4-j5-3" value="&lt;font style=&quot;font-size: 12px;&quot;&gt;开始&lt;/font&gt;" style="rounded=1;whiteSpace=wrap;html=1;shadow=0;labelBackgroundColor=none;strokeWidth=1;fontFamily=Verdana;fontSize=8;align=center;" vertex="1" parent="W-W5v7MFtPskwx4H4-j5-2">
          <mxGeometry x="20" y="65" width="100" height="60" as="geometry" />
        </mxCell>
        <mxCell id="W-W5v7MFtPskwx4H4-j5-4" value="获取用户信息" style="swimlane;html=1;startSize=20;" vertex="1" parent="W-W5v7MFtPskwx4H4-j5-1">
          <mxGeometry x="160" y="20" width="160" height="740" as="geometry" />
        </mxCell>
        <mxCell id="W-W5v7MFtPskwx4H4-j5-5" style="edgeStyle=orthogonalEdgeStyle;rounded=0;orthogonalLoop=1;jettySize=auto;html=1;exitX=0.5;exitY=1;exitDx=0;exitDy=0;entryX=0.5;entryY=0;entryDx=0;entryDy=0;" edge="1" parent="W-W5v7MFtPskwx4H4-j5-4" target="W-W5v7MFtPskwx4H4-j5-22">
          <mxGeometry relative="1" as="geometry">
            <mxPoint x="80" y="325" as="sourcePoint" />
            <mxPoint x="240" y="170" as="targetPoint" />
            <Array as="points">
              <mxPoint x="80" y="370" />
              <mxPoint x="150" y="370" />
              <mxPoint x="150" y="120" />
              <mxPoint x="240" y="120" />
            </Array>
          </mxGeometry>
        </mxCell>
        <mxCell id="W-W5v7MFtPskwx4H4-j5-6" value="&lt;span style=&quot;font-size: 12px;&quot;&gt;调用yj-pms-authorith接口获取用户信息&lt;/span&gt;" style="whiteSpace=wrap;html=1;fontSize=8;fontFamily=Verdana;rounded=0;shadow=0;labelBackgroundColor=none;strokeWidth=1;" vertex="1" parent="W-W5v7MFtPskwx4H4-j5-4">
          <mxGeometry x="30" y="270" width="100" height="60" as="geometry" />
        </mxCell>
        <mxCell id="W-W5v7MFtPskwx4H4-j5-7" style="edgeStyle=orthogonalEdgeStyle;rounded=0;orthogonalLoop=1;jettySize=auto;html=1;exitX=0.5;exitY=1;exitDx=0;exitDy=0;" edge="1" parent="W-W5v7MFtPskwx4H4-j5-4" source="W-W5v7MFtPskwx4H4-j5-8" target="W-W5v7MFtPskwx4H4-j5-6">
          <mxGeometry relative="1" as="geometry" />
        </mxCell>
        <mxCell id="W-W5v7MFtPskwx4H4-j5-8" value="&lt;span style=&quot;font-size: 12px;&quot;&gt;从请求头中获取userId&lt;/span&gt;" style="whiteSpace=wrap;html=1;fontSize=8;fontFamily=Verdana;rounded=0;shadow=0;labelBackgroundColor=none;strokeWidth=1;" vertex="1" parent="W-W5v7MFtPskwx4H4-j5-4">
          <mxGeometry x="30" y="170" width="100" height="60" as="geometry" />
        </mxCell>
        <mxCell id="W-W5v7MFtPskwx4H4-j5-9" value="保存工作票评价" style="swimlane;html=1;startSize=20;" vertex="1" parent="W-W5v7MFtPskwx4H4-j5-1">
          <mxGeometry x="320" y="20" width="160" height="740" as="geometry" />
        </mxCell>
        <mxCell id="W-W5v7MFtPskwx4H4-j5-10" style="edgeStyle=orthogonalEdgeStyle;rounded=0;orthogonalLoop=1;jettySize=auto;html=1;exitX=0.5;exitY=1;exitDx=0;exitDy=0;entryX=0.5;entryY=0;entryDx=0;entryDy=0;" edge="1" parent="W-W5v7MFtPskwx4H4-j5-9">
          <mxGeometry relative="1" as="geometry">
            <mxPoint x="80" y="317.5" as="sourcePoint" />
          </mxGeometry>
        </mxCell>
        <mxCell id="W-W5v7MFtPskwx4H4-j5-11" style="edgeStyle=orthogonalEdgeStyle;rounded=0;orthogonalLoop=1;jettySize=auto;html=1;exitX=0.5;exitY=1;exitDx=0;exitDy=0;entryX=0.5;entryY=0;entryDx=0;entryDy=0;" edge="1" parent="W-W5v7MFtPskwx4H4-j5-9">
          <mxGeometry relative="1" as="geometry">
            <mxPoint x="80" y="420" as="sourcePoint" />
          </mxGeometry>
        </mxCell>
        <mxCell id="W-W5v7MFtPskwx4H4-j5-12" style="edgeStyle=orthogonalEdgeStyle;rounded=0;orthogonalLoop=1;jettySize=auto;html=1;exitX=0.5;exitY=1;exitDx=0;exitDy=0;entryX=0.5;entryY=0;entryDx=0;entryDy=0;" edge="1" parent="W-W5v7MFtPskwx4H4-j5-9">
          <mxGeometry relative="1" as="geometry">
            <mxPoint x="80" y="520" as="sourcePoint" />
          </mxGeometry>
        </mxCell>
        <mxCell id="W-W5v7MFtPskwx4H4-j5-13" style="edgeStyle=orthogonalEdgeStyle;rounded=0;orthogonalLoop=1;jettySize=auto;html=1;exitX=0.5;exitY=1;exitDx=0;exitDy=0;entryX=0.5;entryY=0;entryDx=0;entryDy=0;" edge="1" parent="W-W5v7MFtPskwx4H4-j5-9" source="W-W5v7MFtPskwx4H4-j5-14" target="W-W5v7MFtPskwx4H4-j5-15">
          <mxGeometry relative="1" as="geometry" />
        </mxCell>
        <mxCell id="W-W5v7MFtPskwx4H4-j5-14" value="&lt;span style=&quot;font-size: 12px;&quot;&gt;新增工作票评价&lt;/span&gt;" style="whiteSpace=wrap;html=1;fontSize=8;fontFamily=Verdana;rounded=0;shadow=0;labelBackgroundColor=none;strokeWidth=1;" vertex="1" parent="W-W5v7MFtPskwx4H4-j5-9">
          <mxGeometry x="30" y="280" width="100" height="60" as="geometry" />
        </mxCell>
        <mxCell id="W-W5v7MFtPskwx4H4-j5-15" value="&lt;span style=&quot;font-size: 12px;&quot;&gt;新增工作票评价明细&lt;/span&gt;" style="whiteSpace=wrap;html=1;fontSize=8;fontFamily=Verdana;rounded=0;shadow=0;labelBackgroundColor=none;strokeWidth=1;" vertex="1" parent="W-W5v7MFtPskwx4H4-j5-9">
          <mxGeometry x="30" y="380" width="100" height="60" as="geometry" />
        </mxCell>
        <mxCell id="W-W5v7MFtPskwx4H4-j5-16" style="edgeStyle=orthogonalEdgeStyle;rounded=0;orthogonalLoop=1;jettySize=auto;html=1;exitX=0.5;exitY=1;exitDx=0;exitDy=0;entryX=0.5;entryY=0;entryDx=0;entryDy=0;" edge="1" parent="W-W5v7MFtPskwx4H4-j5-9" source="W-W5v7MFtPskwx4H4-j5-17" target="W-W5v7MFtPskwx4H4-j5-23">
          <mxGeometry relative="1" as="geometry" />
        </mxCell>
        <mxCell id="W-W5v7MFtPskwx4H4-j5-17" value="&lt;span style=&quot;font-size: 12px;&quot;&gt;更新工作票评价&lt;/span&gt;" style="whiteSpace=wrap;html=1;fontSize=8;fontFamily=Verdana;rounded=0;shadow=0;labelBackgroundColor=none;strokeWidth=1;" vertex="1" parent="W-W5v7MFtPskwx4H4-j5-9">
          <mxGeometry x="30" y="480" width="100" height="60" as="geometry" />
        </mxCell>
        <mxCell id="W-W5v7MFtPskwx4H4-j5-18" style="edgeStyle=orthogonalEdgeStyle;rounded=0;orthogonalLoop=1;jettySize=auto;html=1;exitX=0.5;exitY=1;exitDx=0;exitDy=0;entryX=0.5;entryY=0;entryDx=0;entryDy=0;" edge="1" parent="W-W5v7MFtPskwx4H4-j5-9" source="W-W5v7MFtPskwx4H4-j5-22" target="W-W5v7MFtPskwx4H4-j5-14">
          <mxGeometry relative="1" as="geometry" />
        </mxCell>
        <mxCell id="W-W5v7MFtPskwx4H4-j5-19" value="新增" style="edgeLabel;html=1;align=center;verticalAlign=middle;resizable=0;points=[];" vertex="1" connectable="0" parent="W-W5v7MFtPskwx4H4-j5-18">
          <mxGeometry x="-0.1733" y="-4" relative="1" as="geometry">
            <mxPoint as="offset" />
          </mxGeometry>
        </mxCell>
        <mxCell id="W-W5v7MFtPskwx4H4-j5-20" style="edgeStyle=orthogonalEdgeStyle;rounded=0;orthogonalLoop=1;jettySize=auto;html=1;exitX=0;exitY=0.5;exitDx=0;exitDy=0;entryX=0.5;entryY=0;entryDx=0;entryDy=0;" edge="1" parent="W-W5v7MFtPskwx4H4-j5-9" source="W-W5v7MFtPskwx4H4-j5-22" target="W-W5v7MFtPskwx4H4-j5-17">
          <mxGeometry relative="1" as="geometry">
            <Array as="points">
              <mxPoint x="10" y="198" />
              <mxPoint x="10" y="460" />
              <mxPoint x="80" y="460" />
            </Array>
          </mxGeometry>
        </mxCell>
        <mxCell id="W-W5v7MFtPskwx4H4-j5-21" value="更新" style="edgeLabel;html=1;align=center;verticalAlign=middle;resizable=0;points=[];" vertex="1" connectable="0" parent="W-W5v7MFtPskwx4H4-j5-20">
          <mxGeometry x="-0.9356" y="1" relative="1" as="geometry">
            <mxPoint y="12" as="offset" />
          </mxGeometry>
        </mxCell>
        <mxCell id="W-W5v7MFtPskwx4H4-j5-22" value="&lt;span style=&quot;font-size: 12px;&quot;&gt;判断是新增还是更新工作票评价&lt;/span&gt;" style="rhombus;whiteSpace=wrap;html=1;rounded=0;shadow=0;labelBackgroundColor=none;strokeWidth=1;fontFamily=Verdana;fontSize=8;align=center;" vertex="1" parent="W-W5v7MFtPskwx4H4-j5-9">
          <mxGeometry x="30" y="160" width="100" height="75" as="geometry" />
        </mxCell>
        <mxCell id="W-W5v7MFtPskwx4H4-j5-23" value="&lt;span style=&quot;font-size: 12px;&quot;&gt;更新工作票评价明细&lt;/span&gt;" style="whiteSpace=wrap;html=1;fontSize=8;fontFamily=Verdana;rounded=0;shadow=0;labelBackgroundColor=none;strokeWidth=1;" vertex="1" parent="W-W5v7MFtPskwx4H4-j5-9">
          <mxGeometry x="30" y="580" width="100" height="60" as="geometry" />
        </mxCell>
        <mxCell id="W-W5v7MFtPskwx4H4-j5-24" value="操作票转典型" style="swimlane;html=1;startSize=20;" vertex="1" parent="W-W5v7MFtPskwx4H4-j5-1">
          <mxGeometry x="480" y="20" width="160" height="740" as="geometry" />
        </mxCell>
        <mxCell id="W-W5v7MFtPskwx4H4-j5-25" style="edgeStyle=orthogonalEdgeStyle;rounded=0;orthogonalLoop=1;jettySize=auto;html=1;exitX=0.5;exitY=1;exitDx=0;exitDy=0;entryX=0.5;entryY=0;entryDx=0;entryDy=0;" edge="1" parent="W-W5v7MFtPskwx4H4-j5-24" source="W-W5v7MFtPskwx4H4-j5-26" target="W-W5v7MFtPskwx4H4-j5-38">
          <mxGeometry relative="1" as="geometry">
            <mxPoint x="80" y="270" as="targetPoint" />
          </mxGeometry>
        </mxCell>
        <mxCell id="W-W5v7MFtPskwx4H4-j5-26" value="&lt;span style=&quot;font-size: 12px;&quot;&gt;遍历工作票评价拼接工作票评价结果、工作票评价人&lt;/span&gt;" style="whiteSpace=wrap;html=1;fontSize=8;fontFamily=Verdana;rounded=0;shadow=0;labelBackgroundColor=none;strokeWidth=1;" vertex="1" parent="W-W5v7MFtPskwx4H4-j5-24">
          <mxGeometry x="30" y="170" width="100" height="60" as="geometry" />
        </mxCell>
        <mxCell id="W-W5v7MFtPskwx4H4-j5-32" style="edgeStyle=orthogonalEdgeStyle;rounded=0;orthogonalLoop=1;jettySize=auto;html=1;exitX=0.5;exitY=1;exitDx=0;exitDy=0;" edge="1" parent="W-W5v7MFtPskwx4H4-j5-24" source="W-W5v7MFtPskwx4H4-j5-38" target="W-W5v7MFtPskwx4H4-j5-34">
          <mxGeometry relative="1" as="geometry">
            <mxPoint x="80" y="450" as="sourcePoint" />
          </mxGeometry>
        </mxCell>
        <mxCell id="W-W5v7MFtPskwx4H4-j5-34" value="&lt;span style=&quot;font-size: 12px;&quot;&gt;成功返回&lt;/span&gt;" style="whiteSpace=wrap;html=1;fontSize=8;fontFamily=Verdana;rounded=0;shadow=0;labelBackgroundColor=none;strokeWidth=1;" vertex="1" parent="W-W5v7MFtPskwx4H4-j5-24">
          <mxGeometry x="30" y="660" width="100" height="60" as="geometry" />
        </mxCell>
        <mxCell id="W-W5v7MFtPskwx4H4-j5-38" value="&lt;span style=&quot;font-size: 12px;&quot;&gt;更新到工作票主记录&lt;/span&gt;" style="whiteSpace=wrap;html=1;fontSize=8;fontFamily=Verdana;rounded=0;shadow=0;labelBackgroundColor=none;strokeWidth=1;" vertex="1" parent="W-W5v7MFtPskwx4H4-j5-24">
          <mxGeometry x="30" y="270" width="100" height="60" as="geometry" />
        </mxCell>
        <mxCell id="W-W5v7MFtPskwx4H4-j5-35" style="edgeStyle=orthogonalEdgeStyle;rounded=0;orthogonalLoop=1;jettySize=auto;html=1;entryX=0.5;entryY=0;entryDx=0;entryDy=0;exitX=0.5;exitY=1;exitDx=0;exitDy=0;" edge="1" parent="W-W5v7MFtPskwx4H4-j5-1" source="W-W5v7MFtPskwx4H4-j5-3" target="W-W5v7MFtPskwx4H4-j5-8">
          <mxGeometry relative="1" as="geometry">
            <mxPoint x="70" y="240" as="sourcePoint" />
            <mxPoint x="70" y="180" as="targetPoint" />
          </mxGeometry>
        </mxCell>
        <mxCell id="W-W5v7MFtPskwx4H4-j5-36" style="edgeStyle=orthogonalEdgeStyle;rounded=0;orthogonalLoop=1;jettySize=auto;html=1;exitX=0.5;exitY=1;exitDx=0;exitDy=0;entryX=0.5;entryY=0;entryDx=0;entryDy=0;" edge="1" parent="W-W5v7MFtPskwx4H4-j5-1" source="W-W5v7MFtPskwx4H4-j5-23" target="W-W5v7MFtPskwx4H4-j5-26">
          <mxGeometry relative="1" as="geometry">
            <Array as="points">
              <mxPoint x="400" y="700" />
              <mxPoint x="470" y="700" />
              <mxPoint x="470" y="150" />
              <mxPoint x="560" y="150" />
            </Array>
          </mxGeometry>
        </mxCell>
        <mxCell id="W-W5v7MFtPskwx4H4-j5-37" style="edgeStyle=orthogonalEdgeStyle;rounded=0;orthogonalLoop=1;jettySize=auto;html=1;exitX=1;exitY=0.5;exitDx=0;exitDy=0;entryX=0.5;entryY=0;entryDx=0;entryDy=0;" edge="1" parent="W-W5v7MFtPskwx4H4-j5-1" source="W-W5v7MFtPskwx4H4-j5-15" target="W-W5v7MFtPskwx4H4-j5-26">
          <mxGeometry relative="1" as="geometry">
            <Array as="points">
              <mxPoint x="470" y="430" />
              <mxPoint x="470" y="150" />
              <mxPoint x="560" y="150" />
            </Array>
          </mxGeometry>
        </mxCell>
      </root>
    </mxGraphModel>
  </diagram>
</mxfile>
